<svg width="192" height="25" viewBox="0 0 192 25" fill="none" xmlns="http://www.w3.org/2000/svg">
<g id="Group 730">
<path id="XMLID 827" d="M83.5932 2.88518C83.1135 3.09794 82.6203 3.2775 82.1164 3.42328C82.713 2.74856 83.1679 1.95464 83.4455 1.08587C83.5078 0.891133 83.4433 0.677978 83.2832 0.550617C83.1233 0.423158 82.9012 0.40789 82.7252 0.512202C81.655 1.14694 80.5004 1.60309 79.2897 1.86983C78.0702 0.678176 76.4138 0 74.7015 0C71.087 0 68.1463 2.94053 68.1463 6.55491C68.1463 6.83957 68.1644 7.12266 68.2 7.40181C63.7148 7.00801 59.545 4.80347 56.6816 1.29104C56.5795 1.16585 56.4223 1.09838 56.2614 1.11128C56.1003 1.12389 55.9556 1.21471 55.8743 1.35428C55.2935 2.35081 54.9865 3.49056 54.9865 4.6502C54.9865 6.22966 55.5504 7.72824 56.5465 8.89922C56.2437 8.79431 55.9497 8.66321 55.6692 8.50748C55.5186 8.42366 55.3348 8.42494 55.1852 8.51073C55.0355 8.59653 54.9416 8.75432 54.9376 8.9268C54.937 8.95586 54.937 8.98491 54.937 9.01436C54.937 11.372 56.2058 13.4946 58.1458 14.6514C57.9791 14.6348 57.8126 14.6107 57.6471 14.579C57.4765 14.5464 57.3011 14.6062 57.186 14.7364C57.0708 14.8664 57.0326 15.0476 57.0857 15.2131C57.8038 17.455 59.6526 19.104 61.8875 19.6067C60.0339 20.7677 57.914 21.3759 55.6887 21.3759C55.2244 21.3759 54.7574 21.3486 54.3003 21.2945C54.0733 21.2675 53.8562 21.4016 53.7789 21.6175C53.7016 21.8335 53.7835 22.0743 53.9767 22.1982C56.8354 24.0311 60.141 25 63.5358 25C70.2096 25 74.3846 21.8529 76.7117 19.2128C79.6135 15.9208 81.2777 11.5635 81.2777 7.2581C81.2777 7.07824 81.275 6.89661 81.2695 6.71556C82.4143 5.85299 83.4 4.80909 84.2021 3.60925C84.324 3.42703 84.3108 3.18619 84.1696 3.01845C84.0287 2.8506 83.7937 2.79633 83.5932 2.88518Z" fill="#FAA61A"/>
<path id="Vector" d="M135.156 0H114.844C113.555 0 112.5 1.05469 112.5 2.34375V22.6562C112.5 23.9453 113.555 25 114.844 25H135.156C136.445 25 137.5 23.9453 137.5 22.6562V2.34375C137.5 1.05469 136.445 0 135.156 0ZM121.875 20.3125H118.75V9.375H121.875V20.3125ZM120.312 7.8125C119.448 7.8125 118.75 7.11406 118.75 6.25C118.75 5.38594 119.448 4.6875 120.312 4.6875C121.177 4.6875 121.875 5.38594 121.875 6.25C121.875 7.11406 121.177 7.8125 120.312 7.8125ZM132.812 20.3125H129.688V14.0625C129.688 13.1984 128.989 12.5 128.125 12.5C127.261 12.5 126.562 13.1984 126.562 14.0625V20.3125H123.438V9.375H126.562V11.3133C127.207 10.4297 128.193 9.375 129.297 9.375C131.241 9.375 132.812 11.1234 132.812 13.2812V20.3125Z" fill="#FAA61A"/>
<path id="Union" fill-rule="evenodd" clip-rule="evenodd" d="M190.521 4.375C190.833 5.20833 191.042 6.04167 191.146 7.39583C191.25 8.64583 191.25 9.0625 191.25 12.5C191.25 15.9375 191.25 16.3542 191.146 17.6042C191.042 18.9583 190.833 19.7917 190.521 20.625C190.208 21.4583 189.792 22.0833 189.062 22.8125C188.437 23.5417 187.708 23.9583 186.875 24.2708C186.042 24.5833 185.208 24.7917 183.854 24.8958C182.604 25 182.187 25 178.75 25H173.542C172.188 24.8958 171.354 24.6875 170.521 24.375C169.687 24.0625 169.062 23.6458 168.333 22.9167C167.604 22.1875 167.187 21.4583 166.979 20.625C166.667 19.7917 166.458 18.9583 166.354 17.6042C166.25 16.3542 166.25 15.9375 166.25 12.5C166.25 9.0625 166.25 8.64583 166.354 7.39583C166.354 6.04167 166.562 5.10417 166.875 4.27083C167.188 3.54167 167.604 2.8125 168.333 2.08333C169.062 1.35417 169.792 0.9375 170.521 0.625C171.354 0.3125 172.292 0.104167 173.646 0.104167C174.896 0 175.312 0 178.75 0H183.958C185.312 0.104167 186.146 0.3125 186.979 0.625C187.812 0.9375 188.438 1.35417 189.167 2.08333C189.896 2.8125 190.312 3.54167 190.521 4.375ZM183.958 5.83333C183.958 6.66667 184.583 7.29167 185.417 7.29167C186.25 7.29167 186.875 6.66667 186.875 5.83333C186.875 5 186.25 4.375 185.417 4.375C184.583 4.375 183.958 5 183.958 5.83333ZM172.292 12.5C172.292 16.0417 175.208 18.9583 178.75 18.9583C182.292 18.9583 185.208 16.0417 185.208 12.5C185.208 8.95833 182.292 6.04167 178.75 6.04167C175.208 6.04167 172.292 8.95833 172.292 12.5ZM182.917 12.5001C182.917 14.8013 181.051 16.6668 178.75 16.6668C176.449 16.6668 174.583 14.8013 174.583 12.5001C174.583 10.1989 176.449 8.33344 178.75 8.33344C181.051 8.33344 182.917 10.1989 182.917 12.5001Z" fill="#FAA61A"/>
<path id="Vector_2" d="M22.6562 0H2.34375C1.05469 0 0 1.05469 0 2.34375V22.6562C0 23.9453 1.05469 25 2.34375 25H12.5V14.0625H9.375V10.9375H12.5V9.375C12.5 6.79219 14.6047 4.6875 17.1875 4.6875H20.3125V7.8125H17.1875C16.3281 7.8125 15.625 8.51562 15.625 9.375V10.9375H20.3125L19.5312 14.0625H15.625V25H22.6562C23.9453 25 25 23.9453 25 22.6562V2.34375C25 1.05469 23.9453 0 22.6562 0Z" fill="#FAA61A"/>
</g>
</svg>
