<svg width="113" height="33" viewBox="0 0 113 33" fill="none" xmlns="http://www.w3.org/2000/svg">
<g id="Group 303">
<rect id="Rectangle 32" x="0.5" y="0.5" width="32" height="32" rx="16" fill="white" stroke="#D9D9D9"/>
<rect id="Rectangle 33" x="3" y="3" width="27" height="27" rx="13.5" fill="url(#paint0_radial_37_1071)"/>
<path id="Vector" d="M11.7563 17.2348C11.4674 16.938 11.0019 16.9495 10.7196 17.228C10.4211 17.5181 10.4338 17.9869 10.7156 18.2691L13.7271 21.2848C13.8666 21.4245 14.0549 21.5 14.246 21.5C14.4456 21.5 14.6286 21.4212 14.7648 21.2848L22.2934 13.7457L22.3018 13.7373L22.3098 13.7284C22.5621 13.4505 22.5634 13.0255 22.3136 12.7461C22.041 12.4372 21.5708 12.4186 21.2714 12.6934L21.2634 12.7008L21.2557 12.7085L14.246 19.728L11.7563 17.2348ZM11.4 17.5857L11.4208 17.565L11.4208 17.565L11.4 17.5857ZM11.0463 17.9389L11.0694 17.9158L11.0463 17.9389Z" fill="white" stroke="white"/>
<rect id="Rectangle 34" x="40.5" y="0.5" width="32" height="32" rx="16" fill="white" stroke="#D9D9D9"/>
<rect id="Rectangle 35" x="43" y="3" width="27" height="27" rx="13.5" fill="url(#paint1_radial_37_1071)"/>
<rect id="Rectangle 36" x="80.5" y="0.5" width="32" height="32" rx="16" fill="white" stroke="#D9D9D9"/>
<rect id="Rectangle 37" x="83" y="3" width="27" height="27" rx="13.5" fill="url(#paint2_radial_37_1071)"/>
</g>
<defs>
<radialGradient id="paint0_radial_37_1071" cx="0" cy="0" r="1" gradientUnits="userSpaceOnUse" gradientTransform="translate(16 9) rotate(88.6361) scale(21.006)">
<stop stop-color="#F1DAB5"/>
<stop offset="1" stop-color="#E7AE68"/>
</radialGradient>
<radialGradient id="paint1_radial_37_1071" cx="0" cy="0" r="1" gradientUnits="userSpaceOnUse" gradientTransform="translate(56 9.5) rotate(88.6028) scale(20.5061)">
<stop stop-color="#F3F3F3"/>
<stop offset="1" stop-color="#ECECEC"/>
</radialGradient>
<radialGradient id="paint2_radial_37_1071" cx="0" cy="0" r="1" gradientUnits="userSpaceOnUse" gradientTransform="translate(96 3) rotate(88.9391) scale(27.0046)">
<stop stop-color="#FFF2EC"/>
<stop offset="1" stop-color="#ECCFC3"/>
</radialGradient>
</defs>
</svg>
