<svg width="61" height="10" viewBox="0 0 61 10" fill="none" xmlns="http://www.w3.org/2000/svg">
<g id="Group 308">
<path id="Vector" d="M9.97824 3.99468C9.91275 3.79846 9.73307 3.6591 9.5205 3.64054L6.63298 3.38659L5.49117 0.797986C5.40698 0.608276 5.21524 0.485474 5.00221 0.485474C4.78918 0.485474 4.59744 0.608276 4.51325 0.79843L3.37144 3.38659L0.483466 3.64054C0.271271 3.65954 0.0920513 3.79846 0.0261795 3.99468C-0.0396923 4.1909 0.0211418 4.40611 0.181661 4.54178L2.36429 6.39586L1.72068 9.14194C1.67359 9.34385 1.75449 9.55256 1.92746 9.67366C2.02042 9.73872 2.12919 9.77184 2.23888 9.77184C2.33345 9.77184 2.42726 9.74715 2.51145 9.69835L5.00221 8.25645L7.49206 9.69835C7.67426 9.80452 7.90393 9.79483 8.07651 9.67366C8.24955 9.55219 8.33038 9.3434 8.28328 9.14194L7.63968 6.39586L9.8223 4.54215C9.98282 4.40611 10.0441 4.19127 9.97824 3.99468Z" fill="#FFC220"/>
<path id="Vector_2" d="M22.4836 3.99468C22.4182 3.79846 22.2385 3.6591 22.0259 3.64054L19.1384 3.38659L17.9966 0.797986C17.9124 0.608276 17.7206 0.485474 17.5076 0.485474C17.2946 0.485474 17.1028 0.608276 17.0186 0.79843L15.8768 3.38659L12.9889 3.64054C12.7767 3.65954 12.5975 3.79846 12.5316 3.99468C12.4657 4.1909 12.5265 4.40611 12.6871 4.54178L14.8697 6.39586L14.2261 9.14194C14.179 9.34385 14.2599 9.55256 14.4329 9.67366C14.5258 9.73872 14.6346 9.77184 14.7443 9.77184C14.8389 9.77184 14.9327 9.74715 15.0168 9.69835L17.5076 8.25645L19.9975 9.69835C20.1797 9.80452 20.4093 9.79483 20.5819 9.67366C20.7549 9.55219 20.8358 9.3434 20.7887 9.14194L20.1451 6.39586L22.3277 4.54215C22.4882 4.40611 22.5495 4.19127 22.4836 3.99468Z" fill="#FFC220"/>
<path id="Vector_3" d="M34.9891 3.99468C34.9236 3.79846 34.7439 3.6591 34.5313 3.64054L31.6438 3.38659L30.502 0.797986C30.4178 0.608276 30.2261 0.485474 30.013 0.485474C29.8 0.485474 29.6083 0.608276 29.5241 0.79843L28.3823 3.38659L25.4943 3.64054C25.2821 3.65954 25.1029 3.79846 25.037 3.99468C24.9711 4.1909 25.032 4.40611 25.1925 4.54178L27.3751 6.39586L26.7315 9.14194C26.6844 9.34385 26.7653 9.55256 26.9383 9.67366C27.0312 9.73872 27.14 9.77184 27.2497 9.77184C27.3443 9.77184 27.4381 9.74715 27.5223 9.69835L30.013 8.25645L32.5029 9.69835C32.6851 9.80452 32.9147 9.79483 33.0873 9.67366C33.2604 9.55219 33.3412 9.3434 33.2941 9.14194L32.6505 6.39586L34.8331 4.54215C34.9936 4.40611 35.0549 4.19127 34.9891 3.99468Z" fill="#FFC220"/>
<path id="Vector_4" d="M47.0204 4.15354L47.0202 4.15298C47.0201 4.15254 47.0146 4.14051 46.9933 4.13865L46.993 4.13862L44.1054 3.88466L43.811 3.85877L43.6918 3.58837L42.5504 1.0008C42.5504 1.00077 42.5504 1.00073 42.5504 1.00069C42.5487 0.997029 42.5397 0.985474 42.5185 0.985474C42.4974 0.985474 42.4885 0.996951 42.4867 1.00079C42.4867 1.00081 42.4867 1.00083 42.4867 1.00085L41.3452 3.5884L41.2259 3.85878L40.9315 3.88466L38.0443 4.13855C38.0443 4.13856 38.0442 4.13856 38.0442 4.13857C38.0226 4.14055 38.0169 4.15255 38.0164 4.15381C38.0162 4.15444 38.0163 4.15444 38.0163 4.15443C38.0163 4.15443 38.0163 4.15443 38.0163 4.15445C38.0163 4.15454 38.0168 4.15665 38.0207 4.1599L38.0216 4.16071L40.2043 6.01479L40.4371 6.21255L40.3674 6.50995L39.7239 9.25551C39.7239 9.25554 39.7239 9.25556 39.7239 9.25558C39.7236 9.25658 39.7237 9.25661 39.7239 9.25702L47.0204 4.15354ZM47.0204 4.15354C47.0207 4.15434 47.0206 4.15445 47.0206 4.15413C47.0206 4.1539 47.0206 4.15386 47.0206 4.1541C47.0205 4.15423 47.0199 4.15684 47.0153 4.1607L47.0149 4.16105L44.8323 6.01476L44.5994 6.21252L44.6691 6.50995L45.3127 9.25575L47.0204 4.15354ZM39.7551 9.27184C39.7464 9.27184 39.738 9.26931 39.7305 9.26407L45.3127 9.25603C45.3128 9.25635 45.3128 9.25634 45.3126 9.25677C45.3124 9.25738 45.3111 9.2605 45.3055 9.26443L45.3055 9.26445C45.2997 9.26847 45.2921 9.27132 45.2831 9.2717C45.274 9.27209 45.2661 9.26989 45.2601 9.26634L45.2589 9.26567L42.769 7.82376L42.5185 7.67868L42.268 7.82372L39.7772 9.26563L39.777 9.26576C39.7695 9.27012 39.7622 9.27184 39.7551 9.27184Z" fill="white" stroke="#B0B9C7"/>
<path id="Vector_5" d="M59.5258 4.15354L59.5256 4.15298C59.5255 4.15254 59.52 4.14051 59.4987 4.13865L59.4984 4.13862L56.6108 3.88466L56.3164 3.85877L56.1972 3.58837L55.0558 1.0008C55.0558 1.00077 55.0558 1.00073 55.0558 1.00069C55.0541 0.997029 55.0451 0.985474 55.0239 0.985474C55.0028 0.985474 54.9939 0.996951 54.9921 1.00079C54.9921 1.00081 54.9921 1.00083 54.9921 1.00085L53.8506 3.5884L53.7313 3.85878L53.4369 3.88466L50.5497 4.13855C50.5497 4.13856 50.5496 4.13856 50.5496 4.13857C50.528 4.14055 50.5223 4.15255 50.5218 4.15381C50.5216 4.15444 50.5217 4.15444 50.5217 4.15443C50.5217 4.15443 50.5217 4.15443 50.5217 4.15445C50.5217 4.15454 50.5222 4.15665 50.5261 4.1599L50.527 4.16071L52.7097 6.01479L52.9425 6.21255L52.8728 6.50995L52.2293 9.25551C52.2293 9.25554 52.2293 9.25556 52.2293 9.25558C52.229 9.25658 52.2291 9.25661 52.2293 9.25702L59.5258 4.15354ZM59.5258 4.15354C59.5261 4.15434 59.526 4.15445 59.526 4.15413C59.526 4.1539 59.526 4.15386 59.526 4.1541C59.5259 4.15423 59.5253 4.15684 59.5207 4.1607L59.5203 4.16105L57.3377 6.01476L57.1048 6.21252L57.1745 6.50995L57.8181 9.25575L59.5258 4.15354ZM52.2605 9.27184C52.2518 9.27184 52.2434 9.26931 52.2359 9.26407L57.8181 9.25603C57.8182 9.25635 57.8182 9.25634 57.818 9.25677C57.8178 9.25738 57.8165 9.2605 57.8109 9.26443L57.8109 9.26445C57.8051 9.26847 57.7975 9.27132 57.7885 9.2717C57.7794 9.27209 57.7715 9.26989 57.7655 9.26634L57.7643 9.26567L55.2745 7.82376L55.0239 7.67868L54.7734 7.82372L52.2826 9.26563L52.2824 9.26576C52.2749 9.27012 52.2676 9.27184 52.2605 9.27184Z" fill="white" stroke="#B0B9C7"/>
</g>
</svg>
