<svg width="30" height="25" viewBox="0 0 30 25" fill="none" xmlns="http://www.w3.org/2000/svg">
<path id="Vector" d="M15.418 25C15.2542 25 15.103 24.937 14.9896 24.8236L3.42207 13.6215C0.246671 10.5847 0.133264 5.54435 3.17006 2.36895C3.24566 2.28075 3.33387 2.20514 3.42207 2.11694C6.39586 -0.705645 11.0582 -0.705645 14.0194 2.11694L15.418 3.47782L16.8167 2.11694C19.7905 -0.705645 24.4528 -0.705645 27.414 2.11694C30.5894 5.15373 30.7028 10.1941 27.666 13.3695C27.5904 13.4577 27.5022 13.5333 27.414 13.6215L15.8465 24.8236C15.7331 24.937 15.5819 25 15.418 25ZM8.71441 1.22228C7.06371 1.22228 5.46341 1.85232 4.26633 2.99899C1.58236 5.56956 1.48155 9.82863 4.05211 12.5126C4.12772 12.5882 4.20332 12.6638 4.26633 12.7268L15.4054 23.5257L26.5446 12.7268C29.2285 10.1562 29.3293 5.89718 26.7588 3.21321C26.6832 3.1376 26.6076 3.062 26.5446 2.99899C24.0496 0.63004 20.1433 0.63004 17.661 2.99899L15.8339 4.77571C15.5945 5.00252 15.2164 5.00252 14.977 4.77571L13.1625 2.99899C11.9654 1.85232 10.3777 1.20968 8.71441 1.22228Z" fill="#616160"/>
</svg>
