<svg width="25" height="25" viewBox="0 0 25 25" fill="none" xmlns="http://www.w3.org/2000/svg">
<path id="Vector" d="M24.1889 24.13L17.8104 17.7263C22.0081 14.0328 22.4115 7.62911 18.718 3.4314C15.0245 -0.766309 8.59559 -1.16969 4.39788 2.5364C0.200167 6.24248 -0.203216 12.6336 3.49027 16.8313C6.91903 20.7139 12.7177 21.3946 16.9532 18.3944L23.4325 24.8738C23.6594 25.0629 23.9872 25.0376 24.1889 24.8107C24.3528 24.6343 24.3528 24.3317 24.1889 24.13ZM2.028 10.1251C2.028 5.10797 6.09965 1.03631 11.1167 1.03631C16.1338 1.03631 20.2055 5.10797 20.2055 10.1251C20.2055 15.1421 16.1338 19.2138 11.1167 19.2138C6.08705 19.2138 2.028 15.1421 2.028 10.1251Z" fill="#616160"/>
</svg>
