<svg width="30" height="17" viewBox="0 0 30 17" fill="none" xmlns="http://www.w3.org/2000/svg">
<path id="Shape" d="M13.7949 14.4697C13.8266 14.4697 13.8901 14.502 13.9218 14.502H21.6913H23.055C23.2135 15.6299 24.1649 16.5 25.3383 16.5C26.5116 16.5 27.4313 15.6299 27.6216 14.502H29.4609C29.7463 14.502 30 14.2441 30 13.9541V7.6377C30 6.02637 29.556 4.70508 28.7315 3.80273C27.9387 2.93262 26.8288 2.48145 25.592 2.48145H22.2622V0.547852C22.2622 0.257813 22.0085 0 21.723 0H6.81818C6.53277 0 6.27907 0.257813 6.27907 0.547852V3.38379H3.17125C2.88583 3.38379 2.63214 3.6416 2.63214 3.93164C2.63214 4.22168 2.88583 4.47949 3.17125 4.47949H6.81818C7.10359 4.47949 7.35729 4.22168 7.35729 3.93164V1.0957H21.1839V3.0293V13.374H13.9535C13.8901 13.374 13.7949 13.4063 13.7315 13.4063C13.4461 12.4717 12.5581 11.7627 11.5433 11.7627C10.4968 11.7627 9.60888 12.4717 9.32347 13.4385C9.22833 13.374 9.13319 13.3418 9.03806 13.3418H7.35729V10.5059C7.35729 10.2158 7.10359 9.95801 6.81818 9.95801H6.78647H6.75476H3.17125C2.88583 9.95801 2.63214 10.2158 2.63214 10.5059C2.63214 10.7959 2.88583 11.0537 3.17125 11.0537H6.27907V13.8896C6.27907 14.1797 6.53277 14.4375 6.81818 14.4375H9.03806C9.10148 14.4375 9.19662 14.4375 9.26004 14.4053C9.4186 15.5332 10.37 16.4355 11.5433 16.4355C12.685 16.4678 13.6364 15.5977 13.7949 14.4697ZM25.3383 15.3721C24.6723 15.3721 24.1332 14.8242 24.1332 14.1475C24.1332 13.4707 24.6723 12.9229 25.3383 12.9229C26.0042 12.9229 26.5433 13.4707 26.5433 14.1475C26.5433 14.792 26.0042 15.3721 25.3383 15.3721ZM22.2622 3.54492H25.592C27.6533 3.54492 28.9218 5.0918 28.9218 7.60547V13.374H27.5264C27.2093 12.4395 26.3531 11.7949 25.3383 11.7949C24.3235 11.7949 23.4672 12.4717 23.1501 13.374H22.2304V3.54492H22.2622ZM10.3066 14.1152C10.3066 13.4385 10.8457 12.8906 11.5116 12.8906C12.1776 12.8906 12.7167 13.4385 12.7167 14.1152C12.7167 14.792 12.1776 15.3398 11.5116 15.3398C10.8457 15.3721 10.3066 14.792 10.3066 14.1152ZM0.539112 6.6709H13.7315L12.8436 5.76856C12.6216 5.54297 12.6216 5.18848 12.8436 4.99512C13.0655 4.76953 13.4144 4.76953 13.6047 4.99512L15.444 6.86426C15.4757 6.89648 15.4757 6.92871 15.5074 6.92871C15.5074 6.92871 15.5074 6.96094 15.5391 6.96094C15.5391 6.99316 15.5708 6.99316 15.5708 7.02539C15.5708 7.05762 15.5708 7.05762 15.6025 7.08984V7.12207C15.6025 7.1543 15.6025 7.18652 15.6025 7.21875C15.6025 7.25098 15.6025 7.2832 15.6025 7.31543V7.34766C15.6025 7.37988 15.6025 7.37988 15.5708 7.41211C15.5708 7.44434 15.5391 7.44434 15.5391 7.47656C15.5391 7.47656 15.5391 7.50879 15.5074 7.50879C15.4757 7.54102 15.4757 7.57324 15.444 7.60547L13.5095 9.57129C13.4144 9.66797 13.2558 9.73242 13.129 9.73242C13.0021 9.73242 12.8436 9.66797 12.7484 9.57129C12.5264 9.3457 12.5264 8.99121 12.7484 8.79785L13.7315 7.79883H0.539112C0.2537 7.79883 0 7.54102 0 7.25098C0 6.92871 0.2537 6.6709 0.539112 6.6709Z" fill="#616160"/>
</svg>
