<svg width="31" height="25" viewBox="0 0 31 25" fill="none" xmlns="http://www.w3.org/2000/svg">
<path id="Union" fill-rule="evenodd" clip-rule="evenodd" d="M14.3042 17.6513H28.8349C29.216 17.6513 29.5138 17.949 29.5257 18.3063C29.5257 18.6875 29.216 18.9852 28.8468 18.9852H14.3161C13.399 18.9852 12.47 18.6398 11.7077 18.0086C10.9454 17.3773 10.4333 16.5436 10.2546 15.6384L7.94399 3.62077C7.70578 2.394 6.45519 1.35779 5.20459 1.35779H1.64337C1.26224 1.35779 0.964478 1.06003 0.964478 0.678895C0.964478 0.297761 1.26224 0 1.64337 0H5.20459C6.12169 0 7.05071 0.345402 7.81298 0.976655C8.57524 1.60791 9.08739 2.44164 9.26605 3.34683L11.5648 15.3883C11.803 16.6151 13.0536 17.6513 14.3042 17.6513ZM30.2165 2.98952C30.4904 3.33492 30.6929 3.72797 30.8001 4.15674C30.9073 4.59743 30.9192 5.06193 30.8358 5.53835L29.7639 11.4221C29.5972 12.3273 29.0969 13.1729 28.3347 13.8042C27.5724 14.4354 26.6553 14.7808 25.7382 14.7808H14.8878C14.5066 14.7808 14.2089 14.4712 14.2089 14.102C14.2089 13.7208 14.5186 13.4231 14.8878 13.4231H25.7382C26.9769 13.4231 28.2155 12.3988 28.4418 11.172L29.5138 5.28823C29.6091 4.74035 29.49 4.24011 29.1803 3.85898C28.8706 3.47785 28.3942 3.27537 27.8344 3.27537H12.6486C12.2675 3.27537 11.9697 2.97761 11.9697 2.59647C11.9697 2.21534 12.2794 1.91758 12.6486 1.91758H27.8344C28.3108 1.91758 28.7634 2.01286 29.1803 2.20343C29.5852 2.38209 29.9307 2.65603 30.2165 2.98952ZM14.5662 19.6165C13.0893 19.6165 11.8744 20.8194 11.8744 22.3082C11.8744 23.7851 13.0774 25 14.5662 25C16.0431 25 17.2579 23.797 17.2579 22.3082C17.2579 20.8194 16.055 19.6165 14.5662 19.6165ZM14.5662 23.6422C13.8277 23.6422 13.2203 23.0348 13.2203 22.2963C13.2203 21.5579 13.8277 20.9505 14.5662 20.9505C15.3046 20.9505 15.9121 21.5579 15.9121 22.2963C15.9121 23.0467 15.3046 23.6422 14.5662 23.6422ZM22.7606 22.3082C22.7606 20.8194 23.9754 19.6165 25.4523 19.6165C26.9292 19.6165 28.1441 20.8194 28.1441 22.3082C28.1441 23.797 26.9292 25 25.4523 25C23.9635 25 22.7606 23.7851 22.7606 22.3082ZM24.1064 22.2963C24.1064 23.0348 24.7139 23.6422 25.4523 23.6422C26.1908 23.6422 26.7982 23.0467 26.7982 22.2963C26.7982 21.5579 26.1908 20.9505 25.4523 20.9505C24.7139 20.9505 24.1064 21.5579 24.1064 22.2963Z" fill="#616160"/>
</svg>
