<svg width="13" height="18" viewBox="0 0 13 18" fill="none" xmlns="http://www.w3.org/2000/svg">
<path id="Union" fill-rule="evenodd" clip-rule="evenodd" d="M5.90884 17.8095C5.97235 17.9274 6.09937 18 6.23546 18C6.37155 18 6.49857 17.9274 6.57116 17.8095L11.5794 9.37168C12.7316 7.4573 12.7498 5.07114 11.6338 3.13861C11.0804 2.16781 10.282 1.3694 9.31117 0.815952C6.33526 -0.880678 2.54279 0.153631 0.846165 3.12954C-0.2698 5.07114 -0.251654 7.4573 0.900603 9.37168L5.90884 17.8095ZM0.791728 6.20525C0.791728 3.20212 3.23233 0.770587 6.23546 0.770587C7.21533 0.761514 8.16798 1.02463 9.01176 1.53271C11.5975 3.05695 12.4504 6.39578 10.9171 8.98155L6.23546 16.8659L1.55385 8.98155C1.05484 8.13777 0.791728 7.18512 0.791728 6.20525ZM3.24141 6.20523C3.24141 7.85649 4.5842 9.19021 6.23546 9.19021C7.88673 9.19021 9.22044 7.85649 9.22044 6.19616C9.22044 4.54489 7.87766 3.21118 6.22639 3.21118C4.57513 3.21118 3.24141 4.55396 3.24141 6.20523ZM4.01261 6.20523C4.01261 4.97132 5.01062 3.98237 6.23546 3.98237V3.9733C7.4603 3.9733 8.45832 4.97132 8.45832 6.19616V6.20523C8.45832 7.43914 7.4603 8.42809 6.23546 8.42809C5.01062 8.42809 4.01261 7.43007 4.01261 6.20523Z" fill="#616160"/>
</svg>
