<svg width="20" height="20" viewBox="0 0 20 20" fill="none" xmlns="http://www.w3.org/2000/svg">
<path id="Vector" d="M10 0C4.48607 0 0 4.48584 0 10C0 15.5142 4.48607 20 10 20C15.5139 20 20 15.5142 20 10C20 4.48584 15.5139 0 10 0ZM10 18.8764C5.10562 18.8764 1.1236 14.8944 1.1236 10C1.1236 5.10562 5.10562 1.1236 10 1.1236C14.8944 1.1236 18.8764 5.10562 18.8764 10C18.8764 14.8944 14.8944 18.8764 10 18.8764ZM10.5618 9.7609V2.9964C10.5618 2.68607 10.3103 2.43461 10 2.43461C9.68966 2.43461 9.4382 2.68607 9.4382 2.9964V10C9.4382 10.1528 9.50045 10.2991 9.61079 10.4049L13.4685 14.113C13.5773 14.2178 13.7175 14.2699 13.8578 14.2699C14.0052 14.2699 14.1526 14.2121 14.2629 14.0973C14.4778 13.8735 14.4708 13.518 14.2472 13.3029L10.5618 9.7609Z" fill="#616160"/>
</svg>
