<svg width="20" height="20" viewBox="0 0 20 20" fill="none" xmlns="http://www.w3.org/2000/svg">
<path id="Vector" d="M9.97244 0.00208972C9.95402 0.00201107 9.93561 0.00279744 9.91727 0.00444622C9.91109 0.00730399 9.90497 0.0102686 9.8989 0.0133387L0.484843 1.57574C0.203466 1.626 -0.00106522 1.87123 4.17395e-06 2.15704V6.08372C0.0502449 12.6411 4.07351 18.3303 9.83915 19.9776C9.9443 20.0075 10.0557 20.0075 10.1608 19.9776C15.9265 18.3303 19.9498 12.6411 20 6.08372V2.15704C20 1.86756 19.7896 1.621 19.5037 1.57574L10.0896 0.0133387C10.0511 0.00497919 10.0118 0.000510517 9.97244 0L9.97244 0.00208972ZM9.99539 1.18541L18.8189 2.66049V6.07478C18.7729 12.0829 15.1107 17.1745 9.99539 18.7348C4.88609 17.1728 1.22135 12.0834 1.17187 6.08168V2.66049L9.99539 1.18541ZM13.5363 5.87261C13.5278 5.87322 13.5194 5.874 13.511 5.87497C13.3601 5.88217 13.2178 5.94712 13.1135 6.05638L8.82348 10.3461L6.88644 8.40918C6.65575 8.18102 6.28408 8.18203 6.05464 8.41145C5.8252 8.64087 5.82417 9.01252 6.05234 9.24321L8.40528 11.596C8.51569 11.707 8.66578 11.7694 8.82233 11.7694C8.97888 11.7694 9.12897 11.707 9.23938 11.596L13.9453 6.89044C14.1226 6.72458 14.1799 6.46678 14.0893 6.24146C13.9988 6.01614 13.7791 5.8696 13.5362 5.87253L13.5363 5.87261Z" fill="#616160"/>
</svg>
