<svg width="17" height="20" viewBox="0 0 17 20" fill="none" xmlns="http://www.w3.org/2000/svg">
<path id="Vector" d="M0.490197 1.30836e-05C0.226618 1.30836e-05 -0.000195825 0.255629 1.26872e-07 0.465142V19.5349C1.26872e-07 19.7784 0.23353 20 0.490197 20H16.1765C16.4331 20 16.6667 19.7784 16.6667 19.5349V4.65118C16.6667 4.52736 16.614 4.40395 16.5211 4.31688L12.1094 0.13084C12.0182 0.0471219 11.8916 -0.000910661 11.7647 1.30836e-05H0.490197ZM0.980393 0.930258H11.2745V4.65118C11.2745 4.89471 11.508 5.11628 11.7647 5.1163H15.6863V19.0698H0.980393V0.930258ZM12.2549 1.58433L14.9969 4.18607H12.2549V1.58433ZM3.18628 3.95351C2.91554 3.95351 2.69608 4.16174 2.69608 4.41863C2.69608 4.67551 2.91554 4.88374 3.18628 4.88374H8.08824C8.35898 4.88374 8.57844 4.67551 8.57844 4.41863C8.57844 4.16174 8.35898 3.95351 8.08824 3.95351H3.18628ZM3.18628 7.67444C2.91554 7.67444 2.69608 7.88267 2.69608 8.13955C2.69608 8.39644 2.91554 8.60467 3.18628 8.60467H13.4804C13.7511 8.60467 13.9706 8.39644 13.9706 8.13955C13.9706 7.88267 13.7511 7.67444 13.4804 7.67444H3.18628ZM3.18628 11.3954C2.91554 11.3954 2.69608 11.6036 2.69608 11.8605C2.69608 12.1174 2.91554 12.3256 3.18628 12.3256H13.4804C13.7511 12.3256 13.9706 12.1174 13.9706 11.8605C13.9706 11.6036 13.7511 11.3954 13.4804 11.3954H3.18628ZM3.18628 15.1163C2.91554 15.1163 2.69608 15.3245 2.69608 15.5814C2.69608 15.8383 2.91554 16.0465 3.18628 16.0465H13.4804C13.7511 16.0465 13.9706 15.8383 13.9706 15.5814C13.9706 15.3245 13.7511 15.1163 13.4804 15.1163H3.18628Z" fill="#616160"/>
</svg>
