<svg width="13" height="12" viewBox="0 0 13 12" fill="none" xmlns="http://www.w3.org/2000/svg">
<path id="Vector" d="M12.8941 4.53466C12.8094 4.2811 12.5772 4.10101 12.3025 4.07703L8.57124 3.74887L7.09579 0.403834C6.98699 0.158687 6.73923 0 6.46394 0C6.18865 0 5.94089 0.158687 5.83209 0.404407L4.35664 3.74887L0.624743 4.07703C0.350542 4.10159 0.11895 4.2811 0.0338296 4.53466C-0.051291 4.78821 0.0273198 5.06632 0.234746 5.24163L3.05517 7.6375L2.22349 11.186C2.16263 11.4469 2.26719 11.7166 2.49069 11.8731C2.61083 11.9572 2.75138 12 2.89311 12C3.01532 12 3.13654 11.9681 3.24533 11.905L6.46394 10.0418L9.68136 11.905C9.9168 12.0422 10.2136 12.0297 10.4366 11.8731C10.6602 11.7162 10.7647 11.4464 10.7038 11.186L9.87212 7.6375L12.6925 5.24211C12.9 5.06632 12.9792 4.78869 12.8941 4.53466Z" fill="#FFC220"/>
</svg>
