<svg width="22" height="20" viewBox="0 0 22 20" fill="none" xmlns="http://www.w3.org/2000/svg">
<path id="Vector" d="M11 20C10.8753 20 10.7603 19.9496 10.6739 19.8589L1.87037 10.8972C-0.546292 8.46774 -0.632602 4.43548 1.67857 1.89516C1.73611 1.8246 1.80324 1.76411 1.87037 1.69355C4.1336 -0.564516 7.68188 -0.564516 9.93552 1.69355L11 2.78226L12.0645 1.69355C14.3277 -0.564516 17.876 -0.564516 20.1296 1.69355C22.5463 4.12298 22.6326 8.15524 20.3214 10.6956C20.2639 10.7661 20.1968 10.8266 20.1296 10.8972L11.3261 19.8589C11.2397 19.9496 11.1247 20 11 20ZM5.89815 0.977823C4.64187 0.977823 3.42394 1.48185 2.5129 2.39919C0.470242 4.45565 0.393522 7.8629 2.34987 10.0101C2.40741 10.0706 2.46495 10.131 2.5129 10.1815L10.9904 18.8206L19.4679 10.1815C21.5106 8.125 21.5873 4.71774 19.6309 2.57056C19.5734 2.51008 19.5159 2.4496 19.4679 2.39919C17.5691 0.504032 14.5962 0.504032 12.707 2.39919L11.3165 3.82056C11.1343 4.00202 10.8466 4.00202 10.6644 3.82056L9.2834 2.39919C8.37236 1.48185 7.16402 0.967742 5.89815 0.977823Z" fill="#FB6C6C"/>
</svg>
