<svg width="26" height="25" viewBox="0 0 26 25" fill="none" xmlns="http://www.w3.org/2000/svg">
<path id="Vector" d="M18.6435 25C18.3663 25 18.0891 24.9748 17.8119 24.937C15.2793 24.5338 12.8475 23.6518 10.6551 22.3414C9.01713 21.3712 7.49253 20.1868 6.15693 18.826C4.80873 17.4778 3.62433 15.9658 2.65412 14.3278C1.33112 12.1354 0.449123 9.70359 0.0585223 7.17099C-0.206078 5.29359 0.436523 3.40358 1.78472 2.06798L2.81792 1.04738C4.22913 -0.35122 6.50973 -0.35122 7.93353 1.05998L10.1889 3.31538C11.6001 4.72658 11.6001 7.03239 10.1889 8.44359L9.19353 9.43899C8.85333 9.77919 8.81553 10.321 9.09273 10.7116C9.79833 11.7196 10.5921 12.6646 11.4615 13.534C12.3309 14.4034 13.2759 15.1972 14.2839 15.9028C14.6745 16.18 15.2037 16.1422 15.5565 15.802L16.5645 14.8066C17.9757 13.3954 20.2689 13.3954 21.6927 14.8066L23.9481 17.062C25.3593 18.4732 25.3719 20.7664 23.9607 22.1776L23.9481 22.1902L22.9149 23.2234C21.7809 24.3448 20.2437 24.9874 18.6435 25ZM5.37573 1.05998C4.69533 1.05998 4.04013 1.32458 3.56133 1.80338L2.52812 2.83658C1.41932 3.93278 0.890123 5.48258 1.10432 7.03239C1.48232 9.42639 2.32652 11.7196 3.56133 13.7986C4.49373 15.361 5.61513 16.81 6.90033 18.0952C8.18553 19.3804 9.63453 20.4892 11.1969 21.4216C13.2759 22.669 15.5691 23.5006 17.9631 23.8912C18.1899 23.929 18.4167 23.9416 18.6435 23.9416C19.9665 23.929 21.2265 23.3998 22.1463 22.4674L23.1795 21.4342C24.1749 20.4388 24.1749 18.8134 23.1795 17.818L20.9241 15.5626C19.9287 14.5672 18.3033 14.5672 17.3079 15.5626L16.3125 16.558C15.6069 17.2636 14.4981 17.3518 13.6791 16.7722C12.6207 16.0288 11.6253 15.1972 10.7181 14.2774C9.81093 13.3576 8.97933 12.3748 8.24853 11.3164C7.66893 10.51 7.75713 9.38859 8.46273 8.68299L9.44553 7.68759C10.4409 6.69219 10.4409 5.06678 9.44553 4.07138L7.17753 1.80338C6.69873 1.32458 6.04353 1.05998 5.37573 1.05998Z" fill="#616160"/>
</svg>
